<svg version="1.1" xmlns="http://www.w3.org/2000/svg" width="117" height="147">
    <path d="M0 0 C2.796875 1.3984375 2.796875 1.3984375 5.75 3.375 C6.88548161 4.11459022 8.02366347 4.85004611 9.1640625 5.58203125 C9.77540039 5.97471191 10.38673828 6.36739258 11.01660156 6.77197266 C14.63753977 9.01388787 18.38724552 11.02365395 22.125 13.0625 C39.73020494 22.73020494 39.73020494 22.73020494 44 27 C44.52933662 30.43507384 44.46297395 33.90380777 44.5 37.375 C44.54125 38.3340625 44.5825 39.293125 44.625 40.28125 C44.65510258 42.98295695 44.59523562 45.36346969 44 48 C40.45818648 51.3925798 38.91448836 52 34 52 C33.98582031 50.75863281 33.97164063 49.51726562 33.95703125 48.23828125 C33.910118 46.59631757 33.86187068 44.95439163 33.8125 43.3125 C33.80669922 42.49587891 33.80089844 41.67925781 33.79492188 40.83789062 C33.75141602 39.64389648 33.75141602 39.64389648 33.70703125 38.42578125 C33.6913208 37.69786377 33.67561035 36.96994629 33.65942383 36.2199707 C31.99678251 30.62263729 26.33652976 27.77745445 21.5625 25.046875 C20.95994385 24.70118469 20.3573877 24.35549438 19.73657227 23.99932861 C18.47148058 23.27621426 17.20410492 22.55708229 15.93457031 21.84179688 C13.99919567 20.74954606 12.07357861 19.64141798 10.1484375 18.53125 C8.9120071 17.82716046 7.67504541 17.1240029 6.4375 16.421875 C5.32246094 15.78862305 4.20742187 15.15537109 3.05859375 14.50292969 C0.19507198 13.09585433 -1.82573717 12.17047323 -5 12 C-7.59053693 12.92637286 -7.59053693 12.92637286 -10.1328125 14.5 C-11.59074219 15.33724609 -11.59074219 15.33724609 -13.078125 16.19140625 C-14.08359375 16.78824219 -15.0890625 17.38507812 -16.125 18 C-17.10726562 18.56589844 -18.08953125 19.13179687 -19.1015625 19.71484375 C-25.12346592 23.20913245 -31.00153266 26.88557606 -36.81591797 30.71484375 C-39 32 -39 32 -41 32 C-41.07967765 38.01509065 -41.10036566 44.02646347 -41.06713867 50.04199219 C-41.06406233 52.08662769 -41.07691559 54.13135318 -41.10620117 56.17578125 C-41.14560129 59.12147724 -41.12711999 62.06209745 -41.09765625 65.0078125 C-41.12223404 65.9174173 -41.14681183 66.82702209 -41.1721344 67.76419067 C-41.08480005 71.64951196 -40.98063007 74.04048226 -38.12466431 76.83496094 C-35.81273101 78.39903402 -33.48102435 79.72404462 -31 81 C-29.99227539 81.60811523 -28.98455078 82.21623047 -27.94628906 82.84277344 C-27.06166992 83.34325195 -26.17705078 83.84373047 -25.265625 84.359375 C-24.27949219 84.91753906 -23.29335938 85.47570312 -22.27734375 86.05078125 C-21.27832031 86.61152344 -20.27929688 87.17226562 -19.25 87.75 C-18.23550781 88.32621094 -17.22101562 88.90242188 -16.17578125 89.49609375 C-12.1115489 91.79158879 -12.1115489 91.79158879 -8 94 C-6.75694092 94.65742188 -6.75694092 94.65742188 -5.48876953 95.328125 C-2.98725832 96.25545783 -2.98725832 96.25545783 -0.54931641 95.13769531 C0.29969238 94.62303711 1.14870117 94.10837891 2.0234375 93.578125 C2.9834668 93.01158203 3.94349609 92.44503906 4.93261719 91.86132812 C5.94485352 91.24708984 6.95708984 90.63285156 8 90 C10.0943561 88.8037866 12.19074063 87.61111817 14.2890625 86.421875 C16.40199386 85.19956118 18.51396876 83.97559255 20.625 82.75 C21.71167969 82.12609375 22.79835938 81.5021875 23.91796875 80.859375 C25.46291016 79.9621875 25.46291016 79.9621875 27.0390625 79.046875 C27.96928223 78.50901367 28.89950195 77.97115234 29.85791016 77.41699219 C32.11939264 76.17725544 32.11939264 76.17725544 33 74 C33.07730707 71.87548715 33.13735183 69.75032737 33.1875 67.625 C33.6149911 61.3850089 33.6149911 61.3850089 36.8125 58.1875 C40 57 40 57 44 57 C44.14560195 60.72875388 44.23417043 64.45677434 44.3125 68.1875 C44.35439453 69.24259766 44.39628906 70.29769531 44.43945312 71.38476562 C44.56129962 79.10983321 44.56129962 79.10983321 42.2265625 82.8125 C37.33582942 86.12825124 32.25393059 88.99612885 27.0625 91.8125 C24.80957633 93.05150254 22.55697011 94.2910825 20.3046875 95.53125 C19.22026367 96.12550781 18.13583984 96.71976562 17.01855469 97.33203125 C12.15484054 100.01958342 7.36311074 102.82647561 2.57421875 105.64453125 C-1.66435307 107.87637408 -1.66435307 107.87637408 -4 108 C-6.39140501 107.08942656 -8.49954516 106.12472538 -10.75 104.9375 C-11.42667725 104.58969482 -12.10335449 104.24188965 -12.80053711 103.88354492 C-21.56528746 99.29746212 -30.10209006 94.27998272 -38.62890625 89.26953125 C-39.49588135 88.76010986 -40.36285645 88.25068848 -41.25610352 87.72583008 C-42.16158936 87.15630615 -43.0670752 86.58678223 -44 86 C-44.61506409 85.70702026 -45.23012817 85.41404053 -45.86383057 85.11218262 C-48.03258053 83.92284369 -49.43422595 82.9256947 -51 81 C-52.01235248 76.93687994 -51.88622474 72.97211606 -51.7890625 68.8046875 C-51.78627289 67.62029083 -51.78348328 66.43589417 -51.78060913 65.21560669 C-51.76785924 62.71570209 -51.73821178 60.2158345 -51.69287109 57.71630859 C-51.62511997 53.88179023 -51.61087787 50.04990688 -51.60546875 46.21484375 C-51.58647035 43.78643176 -51.56443864 41.35804121 -51.5390625 38.9296875 C-51.53258698 37.77967255 -51.52611145 36.62965759 -51.5194397 35.4447937 C-51.49707245 34.38003815 -51.4747052 33.31528259 -51.45166016 32.21826172 C-51.43720856 31.28070038 -51.42275696 30.34313904 -51.40786743 29.37716675 C-50.92385254 26.55619106 -50.22645567 25.73656789 -48 24 C-46.05357023 22.78208957 -44.07316247 21.61793547 -42.07421875 20.48828125 C-41.49017776 20.15636276 -40.90613678 19.82444427 -40.30439758 19.48246765 C-38.43466045 18.42121262 -36.5612113 17.36671945 -34.6875 16.3125 C-32.86231716 15.27922629 -31.03790988 14.24459475 -29.21365356 13.20968628 C-27.99420008 12.51956911 -26.77338723 11.83184855 -25.55123901 11.14651489 C-22.39546142 9.37454862 -19.26749299 7.56971443 -16.17041016 5.69677734 C-15.54729446 5.32530075 -14.92417877 4.95382416 -14.28218079 4.5710907 C-12.56019266 3.54211307 -10.84587249 2.50033435 -9.13208008 1.45776367 C-5.73540389 -0.12315094 -3.69709186 -0.40680713 0 0 Z "
          fill="#07D464" transform="translate(61,16)"/>
    <path d="M0 0 C1.06089844 0.54140625 2.12179688 1.0828125 3.21484375 1.640625 C4.27832031 2.17171875 5.34179688 2.7028125 6.4375 3.25 C9.15234375 4.890625 9.15234375 4.890625 11.15234375 7.890625 C8.80176002 9.89841527 6.88647731 11.52096417 4.15234375 12.890625 C0.21484375 12.453125 0.21484375 12.453125 -1.78125 12.0234375 C-5.61363148 11.77712187 -8.67720881 13.92595943 -11.84765625 15.890625 C-8.81934809 19.38482672 -6.49449052 21.28825759 -1.84765625 21.890625 C1.70016403 20.61721093 4.87403973 18.73467101 8.15234375 16.890625 C10.35545661 15.77607852 12.56381451 14.67183815 14.77734375 13.578125 C15.80085938 13.06636719 16.824375 12.55460937 17.87890625 12.02734375 C18.62914062 11.65222656 19.379375 11.27710938 20.15234375 10.890625 C23.93431768 12.237827 26.52737012 13.82632524 29.15234375 16.890625 C30.46729204 22.05736027 30.6160421 26.97251362 30.54541016 32.28466797 C30.52738787 34.75956617 30.62637267 37.21137607 30.734375 39.68359375 C30.80948324 44.20601068 30.84737898 48.63588838 29.15234375 52.890625 C25.32016405 56.78004801 21.11648477 58.7344902 16.15234375 60.890625 C14.62756439 61.79087269 13.11643194 62.71522654 11.62890625 63.67578125 C10.34626834 64.43694908 9.06246348 65.19615489 7.77734375 65.953125 C7.13152344 66.35466797 6.48570313 66.75621094 5.8203125 67.16992188 C4.85931641 67.72969727 4.85931641 67.72969727 3.87890625 68.30078125 C3.32799316 68.63215088 2.77708008 68.96352051 2.20947266 69.30493164 C-2.14547817 70.54484702 -6.01765448 69.27310692 -10.01318359 67.43188477 C-11.05941895 66.82143311 -12.1056543 66.21098145 -13.18359375 65.58203125 C-13.74841461 65.25524887 -14.31323547 64.92846649 -14.89517212 64.59178162 C-16.07633306 63.90536883 -17.25432852 63.21348188 -18.42919922 62.51635742 C-20.23190748 61.4476405 -22.04448919 60.39748696 -23.859375 59.34960938 C-32.70533057 54.17527636 -32.70533057 54.17527636 -33.84765625 51.890625 C-33.93257125 50.0042338 -33.95484925 48.11483985 -33.9453125 46.2265625 C-33.94208984 45.10507813 -33.93886719 43.98359375 -33.93554688 42.828125 C-33.92716797 41.6525 -33.91878906 40.476875 -33.91015625 39.265625 C-33.90564453 38.08226562 -33.90113281 36.89890625 -33.89648438 35.6796875 C-33.88467092 32.74994993 -33.86819883 29.82031228 -33.84765625 26.890625 C-30.84765625 25.890625 -30.84765625 25.890625 -27.15234375 27.3203125 C-25.28808594 28.45996094 -25.28808594 28.45996094 -23.84765625 29.890625 C-23.60811071 32.84501995 -23.67354121 35.12217705 -23.97265625 38.015625 C-24.09949876 42.1126381 -24.09215533 45.49037029 -21.27539062 48.65966797 C-15.72101937 53.00933017 -9.37627407 56.41751423 -2.3515625 57.359375 C4.69298959 56.41696001 11.1560969 53.57828666 16.59667969 48.96142578 C21.53330968 42.39009878 19.20703013 31.52445455 18.15234375 23.890625 C17.64372803 24.1987915 17.1351123 24.50695801 16.61108398 24.82446289 C14.28194677 26.22057001 11.93656338 27.58679643 9.58984375 28.953125 C8.78998047 29.43845703 7.99011719 29.92378906 7.16601562 30.42382812 C3.56411183 32.49676051 0.95759236 33.84227289 -3.23046875 34.09375 C-8.63835244 32.29501547 -13.29767947 29.51859848 -18.16015625 26.578125 C-19.16111328 25.99611328 -20.16207031 25.41410156 -21.19335938 24.81445312 C-29.23681334 20.01879489 -29.23681334 20.01879489 -30.84765625 15.890625 C-28.10703165 12.95816063 -25.45715443 10.88512263 -21.96875 8.91015625 C-21.04771484 8.38615234 -20.12667969 7.86214844 -19.17773438 7.32226562 C-18.22318359 6.78794922 -17.26863281 6.25363281 -16.28515625 5.703125 C-15.32673828 5.15720703 -14.36832031 4.61128906 -13.38085938 4.04882812 C-3.68375551 -1.43509817 -3.68375551 -1.43509817 0 0 Z "
          fill="#07D464" transform="translate(59.84765625,35.109375)"/>
</svg>
